# xmcd CD database file
#
# Track frame offsets:
#	150
#	34239
#	65098
#	95871
#	111965
#	132736
#	156302
#	179767
#	193435
#	213787
#	234070
#	252442
#	271438
#	287885
#	310688
#
# Disc length: 4656 seconds
#
# Revision: 0
# Processed by: cddbd v1.5.2PL0 Copyright (c) Steve Scherf et al.
# Submitted via: CDex 1.70beta2
#
DISCID=f2122e0f
DTITLE=Chet Baker - Seven Classic Albums - Vol.2 - CD3
DYEAR=1959
DGENRE=Jazz
TTITLE0=Blue Thoughts
TTITLE1=When Lights Are Low
TTITLE2=Alone Together
TTITLE3=How High The Moon
TTITLE4=It Never Entered My Mind
TTITLE5=Tis Autumn
TTITLE6=If You Could See Me Now
TTITLE7=September Song
TTITLE8=You'd Be So Nice To Come Home To
TTITLE9=Time On My Hands
TTITLE10=You And The Night And The Music
TTITLE11=I've Grown Accustomed To Her Face
TTITLE12=I Could Have Danced All Night
TTITLE13=The Heather On The Hill
TTITLE14=On The Street Where You Live
EXTD=YEAR: 1959
EXTT0=
EXTT1=
EXTT2=
EXTT3=
EXTT4=
EXTT5=
EXTT6=
EXTT7=
EXTT8=
EXTT9=
EXTT10=
EXTT11=
EXTT12=
EXTT13=
EXTT14=
PLAYORDER=
